<svg width="117" height="135" viewBox="0 0 117 135" fill="none" xmlns="http://www.w3.org/2000/svg">
<rect width="116.662" height="134.883" fill="#085147"/>
<path d="M1.4947 87.7141H3.73768V81.5367L9.32673 87.7141H12.1396L6.05419 80.9667L11.7536 74.4768H9.03257L3.73768 80.6174V74.4768H1.4947V87.7141Z" fill="#FFEBE6"/>
<path d="M22.5299 87.7141H24.8097L20.6363 74.4768H17.3821L13.2087 87.7141H15.4885L16.3893 84.846H21.6107L22.5299 87.7141ZM17.0512 82.7685L18.9816 76.6279L20.9488 82.7685H17.0512Z" fill="#FFEBE6"/>
<path d="M29.4179 74.4768H27.1749V87.7141H29.4179V78.3745L35.5585 87.7141H37.8015V74.4768H35.5585V83.798L29.4179 74.4768Z" fill="#FFEBE6"/>
<path d="M44.062 87.7141H47.3162L51.4896 74.4768H49.2099L45.6615 85.563L42.1684 74.4768H39.8886L44.062 87.7141Z" fill="#FFEBE6"/>
<path d="M60.6883 87.7141H62.9681L58.7947 74.4768H55.5405L51.3671 87.7141H53.6469L54.5477 84.846H59.7691L60.6883 87.7141ZM55.2096 82.7685L57.14 76.6279L59.1072 82.7685H55.2096Z" fill="#FFEBE6"/>
<path d="M74.8073 78.0987C74.4396 76.4624 73.4652 75.4696 72.3805 74.8629C71.5164 74.3849 70.4869 74.2194 69.586 74.201C68.4093 74.201 67.2143 74.4401 66.2951 75.1019C65.3758 75.7454 64.7507 76.7933 64.7507 78.0251C64.7507 78.9628 64.9897 79.7901 65.6884 80.452C66.3502 81.0954 67.2511 81.3528 68.3542 81.6654L70.8178 82.3824C71.3877 82.5479 71.829 82.6949 72.1599 83.0075C72.454 83.2649 72.6011 83.651 72.6011 84.037C72.6011 84.5151 72.3621 84.9747 71.9025 85.324C71.3877 85.7285 70.542 85.9123 69.7882 85.9123C68.8322 85.9123 67.9497 85.5262 67.343 84.9195C66.9018 84.4783 66.6444 83.8716 66.5341 83.4487L64.2359 83.798C64.3646 84.607 64.6956 85.4711 65.3758 86.2432C66.5157 87.4934 68.0049 87.9898 69.7147 87.9898C71.1855 87.9898 72.4908 87.6773 73.5388 86.7764C74.3661 86.0778 74.9176 85.1401 74.9176 84.0922C74.9176 82.9891 74.7338 82.2537 74.0352 81.5183C73.5204 80.9667 72.4541 80.5255 71.3142 80.1946L68.9977 79.5695C68.2623 79.3489 67.6923 79.1099 67.3982 78.7973C67.1592 78.5583 67.0856 78.2274 67.0856 77.9516C67.0856 77.4 67.4533 76.9588 67.8946 76.683C68.3358 76.4256 68.9057 76.2786 69.5492 76.2969C70.1927 76.2969 70.781 76.4992 71.2406 76.775C71.829 77.161 72.2886 77.7677 72.4357 78.5031L74.8073 78.0987Z" fill="#FFEBE6"/>
<path d="M11.1836 95.4768H0.391602V97.5543H4.67532V108.714H6.89991V97.5543H11.1836V95.4768Z" fill="#FFEBE6"/>
<path d="M21.3924 108.714H23.6721L19.4987 95.4768H16.2446L12.0712 108.714H14.3509L15.2518 105.846H20.4731L21.3924 108.714ZM15.9136 103.768L17.8441 97.6279L19.8113 103.768H15.9136Z" fill="#FFEBE6"/>
<path d="M35.5114 99.0987C35.1437 97.4624 34.1693 96.4696 33.0846 95.8629C32.2205 95.3849 31.1909 95.2194 30.29 95.201C29.1134 95.201 27.9184 95.4401 26.9991 96.1019C26.0799 96.7454 25.4548 97.7933 25.4548 99.0251C25.4548 99.9628 25.6938 100.79 26.3924 101.452C27.0543 102.095 27.9551 102.353 29.0582 102.665L31.5218 103.382C32.0918 103.548 32.533 103.695 32.8639 104.007C33.1581 104.265 33.3052 104.651 33.3052 105.037C33.3052 105.515 33.0662 105.975 32.6066 106.324C32.0918 106.728 31.2461 106.912 30.4923 106.912C29.5362 106.912 28.6538 106.526 28.0471 105.92C27.6058 105.478 27.3484 104.872 27.2381 104.449L24.94 104.798C25.0687 105.607 25.3996 106.471 26.0799 107.243C27.2197 108.493 28.7089 108.99 30.4187 108.99C31.8895 108.99 33.1949 108.677 34.2428 107.776C35.0701 107.078 35.6217 106.14 35.6217 105.092C35.6217 103.989 35.4378 103.254 34.7392 102.518C34.2244 101.967 33.1581 101.526 32.0182 101.195L29.7017 100.569C28.9663 100.349 28.3964 100.11 28.1022 99.7973C27.8632 99.5583 27.7897 99.2274 27.7897 98.9516C27.7897 98.4 28.1574 97.9588 28.5986 97.683C29.0399 97.4256 29.6098 97.2786 30.2533 97.2969C30.8967 97.2969 31.4851 97.4992 31.9447 97.775C32.533 98.161 32.9926 98.7677 33.1397 99.5031L35.5114 99.0987Z" fill="#FFEBE6"/>
<path d="M46.5727 108.714H48.8525L44.6791 95.4768H41.4249L37.2515 108.714H39.5313L40.4321 105.846H45.6535L46.5727 108.714ZM41.094 103.768L43.0244 97.6279L44.9916 103.768H41.094Z" fill="#FFEBE6"/>
<path d="M58.8291 108.714H61.3295L58.8843 103.695C60.3919 103.015 61.1273 101.562 61.1273 99.7789C61.1273 97.5911 60.0425 95.8997 57.7444 95.5504C57.3951 95.4952 56.9539 95.4768 56.6965 95.4768H51.2177V108.714H53.4239V104.099H56.5862L58.8291 108.714ZM53.4239 97.5543H56.6045C56.8435 97.5543 57.1745 97.5727 57.4319 97.6463C58.535 97.922 58.8843 98.9332 58.8843 99.7789C58.8843 100.625 58.535 101.654 57.4319 101.93C57.1745 102.004 56.8435 102.022 56.6045 102.022H53.4239V97.5543Z" fill="#FFEBE6"/>
<path d="M63.8797 95.4768V108.714H66.0859V95.4768H63.8797Z" fill="#FFEBE6"/>
<path d="M82.7007 95.4768H80.7151L76.1373 104.853L71.541 95.4768H69.5554V108.714H71.6329V100.239L75.696 108.714H76.5785L80.6232 100.22V108.714H82.7007V95.4768Z" fill="#FFEBE6"/>
<path d="M11.1836 116.477H0.391602V118.554H4.67532V129.714H6.89991V118.554H11.1836V116.477Z" fill="#FFEBE6"/>
<path d="M19.1437 129.99C23.0413 129.99 25.4129 127.214 25.4681 123.095C25.3946 118.977 23.0964 116.219 19.1437 116.201C15.2093 116.183 12.8008 119.088 12.8008 123.095C12.8008 127.103 15.2276 129.99 19.1437 129.99ZM19.1437 127.894C16.4594 127.876 15.1541 126 15.1357 123.095C15.0989 120.283 16.4962 118.26 19.1437 118.297C21.7911 118.315 23.1332 120.209 23.1332 123.095C23.1332 125.927 21.8095 127.931 19.1437 127.894Z" fill="#FFEBE6"/>
<path d="M34.7185 116.55C34.3692 116.495 33.928 116.477 33.6706 116.477H28.1918V129.714H30.398V125.099H33.6706C33.9096 125.099 34.3692 125.081 34.7185 125.026C36.9983 124.658 38.1014 122.967 38.1014 120.779C38.1014 118.591 37.0167 116.9 34.7185 116.55ZM34.406 122.93C34.1486 123.004 33.8177 123.022 33.5787 123.022H30.398V118.554H33.5787C33.8177 118.554 34.1486 118.573 34.406 118.646C35.5091 118.922 35.8584 119.933 35.8584 120.779C35.8584 121.625 35.5091 122.654 34.406 122.93Z" fill="#FFEBE6"/>
<path d="M43.0428 116.477V127.637H48.8893V129.714H40.8366V116.477H43.0428Z" fill="#FFEBE6"/>
<path d="M61.8293 116.477H59.5864V124.603C59.5864 124.971 59.568 125.283 59.4944 125.596C59.1819 126.883 57.9685 127.912 56.5161 127.912C55.1004 127.912 53.8686 127.011 53.5193 125.725C53.4274 125.338 53.409 124.989 53.409 124.603V116.477L51.166 116.495V124.805C51.166 125.173 51.2028 125.725 51.3131 126.166C51.8279 128.611 53.887 129.99 56.5161 129.99C59.09 129.99 61.1123 128.593 61.6823 126.147C61.7742 125.706 61.8293 125.246 61.8293 124.805V116.477Z" fill="#FFEBE6"/>
<path d="M67.4993 116.477V127.637H73.3457V129.714H65.2931V116.477H67.4993Z" fill="#FFEBE6"/>
<path d="M86.2858 116.477H84.0428V124.603C84.0428 124.971 84.0244 125.283 83.9509 125.596C83.6384 126.883 82.4249 127.912 80.9725 127.912C79.5569 127.912 78.3251 127.011 77.9758 125.725C77.8838 125.338 77.8655 124.989 77.8655 124.603V116.477L75.6225 116.495V124.805C75.6225 125.173 75.6593 125.725 75.7696 126.166C76.2843 128.611 78.3435 129.99 80.9725 129.99C83.5464 129.99 85.5688 128.593 86.1387 126.147C86.2306 125.706 86.2858 125.246 86.2858 124.805V116.477Z" fill="#FFEBE6"/>
<path d="M95.3386 115.374C96.8829 115.374 98.1147 114.124 98.1147 112.579H96.3865C96.3865 113.168 95.9269 113.646 95.3386 113.646C94.7503 113.646 94.2723 113.168 94.2723 112.579H92.5441C92.5441 114.124 93.7942 115.374 95.3386 115.374ZM101.406 122.765H96.074V124.511H98.8317C98.7398 125.265 98.4089 126.147 97.7838 126.754C97.1587 127.379 96.313 127.71 95.357 127.692C94.1987 127.71 93.0772 127.25 92.4154 126.35C91.7167 125.43 91.5329 124.272 91.5145 123.095C91.5329 121.919 91.7351 120.724 92.4154 119.841C93.0772 118.94 94.1987 118.481 95.357 118.481C96.3314 118.481 97.1771 118.812 97.7838 119.418C98.2618 119.878 98.4824 120.374 98.6479 120.889L101.056 120.522C100.781 119.4 100.266 118.389 99.2362 117.543C98.1515 116.569 96.791 116.201 95.2099 116.201C93.2979 116.201 91.6616 116.9 90.5033 118.334C89.4186 119.657 89.0141 121.312 89.0141 123.095C89.0141 124.805 89.4554 126.423 90.5033 127.82C91.588 129.236 93.2795 129.99 95.2099 129.99C97.0116 129.99 98.6847 129.42 99.8613 128.023C100.836 126.864 101.424 125.283 101.424 123.463L101.406 122.765Z" fill="#FFEBE6"/>
<path d="M114.81 116.477H112.567V124.603C112.567 124.971 112.549 125.283 112.475 125.596C112.163 126.883 110.949 127.912 109.497 127.912C108.081 127.912 106.849 127.011 106.5 125.725C106.408 125.338 106.39 124.989 106.39 124.603V116.477L104.147 116.495V124.805C104.147 125.173 104.183 125.725 104.294 126.166C104.808 128.611 106.868 129.99 109.497 129.99C112.071 129.99 114.093 128.593 114.663 126.147C114.755 125.706 114.81 125.246 114.81 124.805V116.477Z" fill="#FFEBE6"/>
<path fill-rule="evenodd" clip-rule="evenodd" d="M1 0.0253296H48.1961L26.3136 30.9496L48.1961 61.8738H1V0.0253296ZM7.77279 57.1514L23.489 34.9412L39.2053 57.1514H7.77279Z" fill="#FFEBE6"/>
</svg>
