<svg width="230" height="81" viewBox="0 0 230 81" fill="none" xmlns="http://www.w3.org/2000/svg">
<path fill-rule="evenodd" clip-rule="evenodd" d="M170.088 2.39563H229.664L202.041 40.0449L229.664 77.6941H170.088V2.39563ZM178.637 71.9447L198.476 44.9046L218.314 71.9447H178.637Z" fill="#FFEBE6"/>
<mask id="path-2-outside-1" maskUnits="userSpaceOnUse" x="-0.683289" y="3.74255" width="147" height="73" fill="black">
<rect fill="white" x="-0.683289" y="3.74255" width="147" height="73"/>
<path d="M52.9877 5.09066H55.819V12.8419L62.5027 5.09066H65.9374L58.7431 13.2829L66.4248 21.8H62.874L55.819 14.0023V21.8H52.9877V5.09066Z"/>
<path d="M78.3801 18.1796H71.7892L70.652 21.8H67.7743L73.0424 5.09066H77.1501L82.4182 21.8H79.5405L78.3801 18.1796ZM77.5446 15.5572L75.0614 7.80593L72.6246 15.5572H77.5446Z"/>
<path d="M95.9864 16.8568V5.09066H98.8177V21.8H95.9864L88.2351 10.0106V21.8H85.4038V5.09066H88.2351L95.9864 16.8568Z"/>
<path d="M101.452 5.09066H104.33L108.739 19.0847L113.218 5.09066H116.096L110.828 21.8H106.72L101.452 5.09066Z"/>
<path d="M126.547 18.1796H119.956L118.819 21.8H115.942L121.21 5.09066H125.317L130.585 21.8H127.708L126.547 18.1796ZM125.712 15.5572L123.229 7.80593L120.792 15.5572H125.712Z"/>
<path d="M142.536 10.1731C142.444 9.72441 142.266 9.31442 142.003 8.9431C141.74 8.55631 141.415 8.23914 141.028 7.99159C140.378 7.58933 139.62 7.3882 138.754 7.3882C138.026 7.3882 137.377 7.55065 136.804 7.87556C136.495 8.06122 136.247 8.29329 136.062 8.57178C135.876 8.85027 135.783 9.15196 135.783 9.47687C135.783 9.92554 135.915 10.2814 136.178 10.5444C136.502 10.8848 137.175 11.2097 138.197 11.5191L141.121 12.3082C142.838 12.8033 143.983 13.3602 144.555 13.9791C144.973 14.4278 145.259 14.8997 145.414 15.3948C145.584 15.8899 145.669 16.501 145.669 17.2281C145.669 17.8625 145.515 18.4736 145.205 19.0615C144.896 19.634 144.47 20.1523 143.929 20.6164C142.738 21.6376 141.128 22.1481 139.102 22.1481C136.796 22.1481 134.971 21.4132 133.625 19.9434C132.851 19.0615 132.372 18.0327 132.186 16.8568L135.087 16.4159C135.288 17.174 135.628 17.7929 136.108 18.2725C136.495 18.6593 136.959 18.9687 137.5 19.2008C138.042 19.4174 138.607 19.5257 139.195 19.5257C139.705 19.5257 140.2 19.4638 140.68 19.34C141.159 19.2162 141.554 19.0306 141.863 18.783C142.451 18.3344 142.745 17.7929 142.745 17.1585C142.745 16.617 142.56 16.1838 142.188 15.8589C142.003 15.6732 141.778 15.5263 141.515 15.418C141.252 15.3097 140.912 15.1936 140.494 15.0699L137.384 14.1648C136.502 13.9172 135.814 13.6929 135.319 13.4918C134.824 13.2906 134.391 13.0044 134.019 12.6331C133.23 11.8904 132.836 10.8693 132.836 9.5697C132.836 8.81159 133.006 8.11537 133.346 7.48103C133.702 6.83122 134.182 6.29745 134.785 5.87972C135.837 5.12161 137.222 4.74255 138.939 4.74255C140.332 4.7735 141.508 5.05199 142.467 5.57802C144.107 6.49085 145.128 7.85235 145.53 9.66253L142.536 10.1731Z"/>
<path d="M54.4709 34.5439H49.0636V48.6308H46.2555V34.5439H40.8482V31.9214H54.4709V34.5439Z"/>
<path d="M66.1971 45.0104H59.6062L58.469 48.6308H55.5913L60.8594 31.9214H64.9671L70.2351 48.6308H67.3574L66.1971 45.0104ZM65.3616 42.388L62.8784 34.6367L60.4416 42.388H65.3616Z"/>
<path d="M82.1861 37.0039C82.0933 36.5552 81.9153 36.1452 81.6523 35.7739C81.3893 35.3871 81.0644 35.0699 80.6776 34.8224C80.0278 34.4201 79.2697 34.219 78.4033 34.219C77.6761 34.219 77.0263 34.3814 76.4539 34.7063C76.1444 34.892 75.8969 35.1241 75.7112 35.4025C75.5256 35.681 75.4327 35.9827 75.4327 36.3076C75.4327 36.7563 75.5642 37.1122 75.8273 37.3752C76.1522 37.7156 76.8252 38.0405 77.8463 38.3499L80.7704 39.1389C82.4878 39.634 83.6327 40.191 84.2051 40.8099C84.6229 41.2586 84.9091 41.7304 85.0638 42.2255C85.234 42.7206 85.3191 43.3317 85.3191 44.0589C85.3191 44.6932 85.1644 45.3044 84.8549 45.8923C84.5455 46.4648 84.12 46.983 83.5785 47.4472C82.3872 48.4683 80.7782 48.9789 78.7514 48.9789C76.4461 48.9789 74.6205 48.244 73.2744 46.7742C72.5009 45.8923 72.0212 44.8634 71.8356 43.6876L74.7365 43.2467C74.9376 44.0048 75.278 44.6236 75.7576 45.1032C76.1444 45.49 76.6086 45.7995 77.1501 46.0315C77.6916 46.2481 78.2563 46.3564 78.8442 46.3564C79.3548 46.3564 79.8499 46.2946 80.3295 46.1708C80.8091 46.047 81.2036 45.8614 81.5131 45.6138C82.101 45.1651 82.395 44.6236 82.395 43.9893C82.395 43.4478 82.2093 43.0146 81.838 42.6897C81.6523 42.504 81.428 42.357 81.165 42.2487C80.902 42.1404 80.5616 42.0244 80.1438 41.9006L77.0341 40.9955C76.1522 40.748 75.4637 40.5236 74.9686 40.3225C74.4735 40.1214 74.0403 39.8352 73.669 39.4638C72.8799 38.7212 72.4854 37.7001 72.4854 36.4005C72.4854 35.6424 72.6556 34.9461 72.996 34.3118C73.3518 33.662 73.8314 33.1282 74.4348 32.7105C75.4869 31.9524 76.8716 31.5733 78.5889 31.5733C79.9814 31.6043 81.1572 31.8828 82.1165 32.4088C83.7565 33.3216 84.7776 34.6831 85.1799 36.4933L82.1861 37.0039Z"/>
<path d="M97.9822 45.0104H91.3913L90.2542 48.6308H87.3764L92.6445 31.9214H96.7522L102.02 48.6308H99.1426L97.9822 45.0104ZM97.1468 42.388L94.6636 34.6367L92.2268 42.388H97.1468Z"/>
<path d="M111.783 42.8057H107.791V48.6308H105.006V31.9214H111.922C112.417 31.9214 112.858 31.9524 113.245 32.0143C114.652 32.2309 115.712 32.8188 116.424 33.778C117.151 34.7218 117.515 35.9131 117.515 37.352C117.515 38.4969 117.275 39.5025 116.795 40.3689C116.316 41.2353 115.612 41.8774 114.683 42.2952L117.77 48.6308H114.614L111.783 42.8057ZM107.791 40.1833H111.806C112.223 40.1833 112.572 40.1446 112.85 40.0672C113.484 39.9125 113.949 39.5799 114.242 39.0693C114.536 38.5433 114.683 37.9708 114.683 37.352C114.683 36.7331 114.536 36.1684 114.242 35.6578C113.949 35.1473 113.484 34.8146 112.85 34.6599C112.572 34.5826 112.223 34.5439 111.806 34.5439H107.791V40.1833Z"/>
<path d="M123.774 31.9214V48.6308H120.989V31.9214H123.774Z"/>
<path d="M144.747 48.6308H142.124V37.9089L137.019 48.6308H135.905L130.776 37.9322V48.6308H128.154V31.9214H130.66L136.462 43.7572L142.241 31.9214H144.747V48.6308Z"/>
<path d="M13.9395 61.3746H8.53214V75.4615H5.72404V61.3746H0.316711V58.7522H13.9395V61.3746Z"/>
<path d="M23.9874 75.8097C22.3629 75.8097 20.9472 75.4383 19.7404 74.6957C18.5337 73.9531 17.6054 72.9242 16.9556 71.6091C16.3058 70.294 15.9808 68.7933 15.9808 67.1069C15.9808 65.4205 16.298 63.9197 16.9324 62.6046C17.5822 61.2895 18.5105 60.2607 19.7172 59.518C20.924 58.7754 22.3319 58.4041 23.941 58.4041C25.581 58.4041 26.9966 58.7677 28.1879 59.4948C29.3947 60.2065 30.3153 61.2199 30.9496 62.535C31.5994 63.8346 31.9398 65.3586 31.9708 67.1069C31.9553 68.8397 31.6226 70.3636 30.9728 71.6787C30.323 72.9784 29.3947 73.9917 28.1879 74.7189C26.9966 75.4461 25.5965 75.8097 23.9874 75.8097ZM24.0802 73.164C25.6738 73.164 26.8961 72.6148 27.747 71.5163C28.5979 70.4178 29.0234 68.948 29.0234 67.1069C29.0234 65.2348 28.5825 63.7573 27.7006 62.6743C26.8342 61.5912 25.5655 61.0497 23.8946 61.0497C22.3165 61.0497 21.0942 61.5912 20.2278 62.6743C19.3614 63.7573 18.9282 65.1884 18.9282 66.9676C18.9282 68.9016 19.3614 70.4178 20.2278 71.5163C21.0942 72.6148 22.3784 73.164 24.0802 73.164Z"/>
<path d="M43.6476 58.845C45.0555 59.0616 46.1153 59.6496 46.827 60.6088C47.5542 61.5526 47.9177 62.7439 47.9177 64.1827C47.9177 65.6061 47.5542 66.7974 46.827 67.7567C46.0998 68.7159 45.04 69.3116 43.6476 69.5437C43.2608 69.6055 42.8198 69.6365 42.3247 69.6365H38.1938V75.4615H35.4089V58.7522H42.3247C42.8198 58.7522 43.2608 58.7831 43.6476 58.845ZM43.253 66.898C43.8874 66.7433 44.3515 66.4106 44.6455 65.9001C44.9394 65.3741 45.0864 64.8016 45.0864 64.1827C45.0864 63.5639 44.9394 62.9992 44.6455 62.4886C44.3515 61.978 43.8874 61.6454 43.253 61.4907C42.9746 61.4133 42.6264 61.3746 42.2087 61.3746H38.1938V67.014H42.2087C42.6264 67.014 42.9746 66.9754 43.253 66.898Z"/>
<path d="M51.3704 58.7522V75.4615H61.5353V72.8391H54.1553V58.7522H51.3704Z"/>
<path d="M77.8695 69.2652C77.8695 69.8067 77.8076 70.3714 77.6839 70.9593C77.328 72.4755 76.5622 73.6668 75.3863 74.5332C74.2105 75.3842 72.8026 75.8097 71.1626 75.8097C69.4762 75.8097 68.0373 75.3842 66.846 74.5332C65.6702 73.6823 64.9198 72.4987 64.5949 70.9825C64.4711 70.4874 64.4092 69.915 64.4092 69.2652V58.7754L67.2405 58.7522V69.0099C67.2405 69.5669 67.2869 70.0387 67.3798 70.4255C67.5964 71.2455 68.0528 71.9108 68.749 72.4214C69.4607 72.9319 70.2652 73.1872 71.1626 73.1872C72.0599 73.1872 72.8567 72.9087 73.5529 72.3517C74.2646 71.7948 74.721 71.0985 74.9222 70.2631C74.9995 69.9382 75.0382 69.5204 75.0382 69.0099V58.7522H77.8695V69.2652Z"/>
<path d="M82.2418 58.7522V75.4615H92.4066V72.8391H85.0267V58.7522H82.2418Z"/>
<path d="M108.741 69.2652C108.741 69.8067 108.679 70.3714 108.555 70.9593C108.199 72.4755 107.434 73.6668 106.258 74.5332C105.082 75.3842 103.674 75.8097 102.034 75.8097C100.348 75.8097 98.9087 75.3842 97.7174 74.5332C96.5415 73.6823 95.7912 72.4987 95.4662 70.9825C95.3425 70.4874 95.2806 69.915 95.2806 69.2652V58.7754L98.1119 58.7522V69.0099C98.1119 69.5669 98.1583 70.0387 98.2511 70.4255C98.4677 71.2455 98.9242 71.9108 99.6204 72.4214C100.332 72.9319 101.137 73.1872 102.034 73.1872C102.931 73.1872 103.728 72.9087 104.424 72.3517C105.136 71.7948 105.592 71.0985 105.794 70.2631C105.871 69.9382 105.91 69.5204 105.91 69.0099V58.7522H108.741V69.2652Z"/>
<path d="M120.168 57.3598C119.534 57.3598 118.946 57.205 118.404 56.8956C117.863 56.5707 117.43 56.1375 117.105 55.596C116.795 55.0545 116.641 54.4666 116.641 53.8322H118.822C118.822 54.2035 118.954 54.5207 119.217 54.7837C119.48 55.0468 119.797 55.1783 120.168 55.1783C120.54 55.1783 120.849 55.0468 121.097 54.7837C121.36 54.5207 121.491 54.2035 121.491 53.8322H123.673C123.673 54.4666 123.518 55.0545 123.208 55.596C122.899 56.1375 122.473 56.5707 121.932 56.8956C121.39 57.205 120.803 57.3598 120.168 57.3598ZM127.85 67.571C127.85 68.7004 127.68 69.7603 127.339 70.7504C126.999 71.7252 126.512 72.5838 125.877 73.3265C125.166 74.1774 124.307 74.804 123.301 75.2063C122.296 75.6085 121.197 75.8097 120.006 75.8097C118.784 75.8097 117.654 75.5776 116.617 75.1134C115.596 74.6338 114.745 73.9531 114.065 73.0712C112.811 71.4002 112.185 69.4121 112.185 67.1069C112.185 64.6314 112.811 62.6278 114.065 61.0961C114.792 60.1988 115.658 59.5258 116.664 59.0771C117.67 58.6284 118.784 58.4041 120.006 58.4041C122.141 58.4041 123.835 58.9688 125.088 60.0982C126.233 61.042 126.999 62.2952 127.386 63.8578L124.346 64.322C124.098 63.5484 123.734 62.9295 123.255 62.4654C122.466 61.6763 121.445 61.2818 120.191 61.2818C119.433 61.2818 118.722 61.4288 118.056 61.7228C117.407 62.0167 116.881 62.4422 116.478 62.9992C115.751 63.9429 115.372 65.3122 115.341 67.1069C115.357 67.9423 115.449 68.7004 115.62 69.3812C115.79 70.062 116.076 70.6731 116.478 71.2146C116.881 71.7716 117.414 72.197 118.08 72.491C118.745 72.785 119.449 72.9242 120.191 72.9087C121.414 72.9397 122.435 72.5451 123.255 71.7252C123.626 71.3693 123.92 70.9361 124.137 70.4255C124.369 69.915 124.516 69.4044 124.578 68.8938H121.097V66.6891H127.827L127.85 67.571Z"/>
<path d="M144.747 69.2652C144.747 69.8067 144.685 70.3714 144.561 70.9593C144.205 72.4755 143.44 73.6668 142.264 74.5332C141.088 75.3842 139.68 75.8097 138.04 75.8097C136.354 75.8097 134.915 75.3842 133.723 74.5332C132.548 73.6823 131.797 72.4987 131.472 70.9825C131.348 70.4874 131.287 69.915 131.287 69.2652V58.7754L134.118 58.7522V69.0099C134.118 69.5669 134.164 70.0387 134.257 70.4255C134.474 71.2455 134.93 71.9108 135.626 72.4214C136.338 72.9319 137.143 73.1872 138.04 73.1872C138.937 73.1872 139.734 72.9087 140.43 72.3517C141.142 71.7948 141.598 71.0985 141.8 70.2631C141.877 69.9382 141.916 69.5204 141.916 69.0099V58.7522H144.747V69.2652Z"/>
</mask>
<path d="M52.9877 5.09066H55.819V12.8419L62.5027 5.09066H65.9374L58.7431 13.2829L66.4248 21.8H62.874L55.819 14.0023V21.8H52.9877V5.09066Z" fill="#FFEBE6"/>
<path d="M78.3801 18.1796H71.7892L70.652 21.8H67.7743L73.0424 5.09066H77.1501L82.4182 21.8H79.5405L78.3801 18.1796ZM77.5446 15.5572L75.0614 7.80593L72.6246 15.5572H77.5446Z" fill="#FFEBE6"/>
<path d="M95.9864 16.8568V5.09066H98.8177V21.8H95.9864L88.2351 10.0106V21.8H85.4038V5.09066H88.2351L95.9864 16.8568Z" fill="#FFEBE6"/>
<path d="M101.452 5.09066H104.33L108.739 19.0847L113.218 5.09066H116.096L110.828 21.8H106.72L101.452 5.09066Z" fill="#FFEBE6"/>
<path d="M126.547 18.1796H119.956L118.819 21.8H115.942L121.21 5.09066H125.317L130.585 21.8H127.708L126.547 18.1796ZM125.712 15.5572L123.229 7.80593L120.792 15.5572H125.712Z" fill="#FFEBE6"/>
<path d="M142.536 10.1731C142.444 9.72441 142.266 9.31442 142.003 8.9431C141.74 8.55631 141.415 8.23914 141.028 7.99159C140.378 7.58933 139.62 7.3882 138.754 7.3882C138.026 7.3882 137.377 7.55065 136.804 7.87556C136.495 8.06122 136.247 8.29329 136.062 8.57178C135.876 8.85027 135.783 9.15196 135.783 9.47687C135.783 9.92554 135.915 10.2814 136.178 10.5444C136.502 10.8848 137.175 11.2097 138.197 11.5191L141.121 12.3082C142.838 12.8033 143.983 13.3602 144.555 13.9791C144.973 14.4278 145.259 14.8997 145.414 15.3948C145.584 15.8899 145.669 16.501 145.669 17.2281C145.669 17.8625 145.515 18.4736 145.205 19.0615C144.896 19.634 144.47 20.1523 143.929 20.6164C142.738 21.6376 141.128 22.1481 139.102 22.1481C136.796 22.1481 134.971 21.4132 133.625 19.9434C132.851 19.0615 132.372 18.0327 132.186 16.8568L135.087 16.4159C135.288 17.174 135.628 17.7929 136.108 18.2725C136.495 18.6593 136.959 18.9687 137.5 19.2008C138.042 19.4174 138.607 19.5257 139.195 19.5257C139.705 19.5257 140.2 19.4638 140.68 19.34C141.159 19.2162 141.554 19.0306 141.863 18.783C142.451 18.3344 142.745 17.7929 142.745 17.1585C142.745 16.617 142.56 16.1838 142.188 15.8589C142.003 15.6732 141.778 15.5263 141.515 15.418C141.252 15.3097 140.912 15.1936 140.494 15.0699L137.384 14.1648C136.502 13.9172 135.814 13.6929 135.319 13.4918C134.824 13.2906 134.391 13.0044 134.019 12.6331C133.23 11.8904 132.836 10.8693 132.836 9.5697C132.836 8.81159 133.006 8.11537 133.346 7.48103C133.702 6.83122 134.182 6.29745 134.785 5.87972C135.837 5.12161 137.222 4.74255 138.939 4.74255C140.332 4.7735 141.508 5.05199 142.467 5.57802C144.107 6.49085 145.128 7.85235 145.53 9.66253L142.536 10.1731Z" fill="#FFEBE6"/>
<path d="M54.4709 34.5439H49.0636V48.6308H46.2555V34.5439H40.8482V31.9214H54.4709V34.5439Z" fill="#FFEBE6"/>
<path d="M66.1971 45.0104H59.6062L58.469 48.6308H55.5913L60.8594 31.9214H64.9671L70.2351 48.6308H67.3574L66.1971 45.0104ZM65.3616 42.388L62.8784 34.6367L60.4416 42.388H65.3616Z" fill="#FFEBE6"/>
<path d="M82.1861 37.0039C82.0933 36.5552 81.9153 36.1452 81.6523 35.7739C81.3893 35.3871 81.0644 35.0699 80.6776 34.8224C80.0278 34.4201 79.2697 34.219 78.4033 34.219C77.6761 34.219 77.0263 34.3814 76.4539 34.7063C76.1444 34.892 75.8969 35.1241 75.7112 35.4025C75.5256 35.681 75.4327 35.9827 75.4327 36.3076C75.4327 36.7563 75.5642 37.1122 75.8273 37.3752C76.1522 37.7156 76.8252 38.0405 77.8463 38.3499L80.7704 39.1389C82.4878 39.634 83.6327 40.191 84.2051 40.8099C84.6229 41.2586 84.9091 41.7304 85.0638 42.2255C85.234 42.7206 85.3191 43.3317 85.3191 44.0589C85.3191 44.6932 85.1644 45.3044 84.8549 45.8923C84.5455 46.4648 84.12 46.983 83.5785 47.4472C82.3872 48.4683 80.7782 48.9789 78.7514 48.9789C76.4461 48.9789 74.6205 48.244 73.2744 46.7742C72.5009 45.8923 72.0212 44.8634 71.8356 43.6876L74.7365 43.2467C74.9376 44.0048 75.278 44.6236 75.7576 45.1032C76.1444 45.49 76.6086 45.7995 77.1501 46.0315C77.6916 46.2481 78.2563 46.3564 78.8442 46.3564C79.3548 46.3564 79.8499 46.2946 80.3295 46.1708C80.8091 46.047 81.2036 45.8614 81.5131 45.6138C82.101 45.1651 82.395 44.6236 82.395 43.9893C82.395 43.4478 82.2093 43.0146 81.838 42.6897C81.6523 42.504 81.428 42.357 81.165 42.2487C80.902 42.1404 80.5616 42.0244 80.1438 41.9006L77.0341 40.9955C76.1522 40.748 75.4637 40.5236 74.9686 40.3225C74.4735 40.1214 74.0403 39.8352 73.669 39.4638C72.8799 38.7212 72.4854 37.7001 72.4854 36.4005C72.4854 35.6424 72.6556 34.9461 72.996 34.3118C73.3518 33.662 73.8314 33.1282 74.4348 32.7105C75.4869 31.9524 76.8716 31.5733 78.5889 31.5733C79.9814 31.6043 81.1572 31.8828 82.1165 32.4088C83.7565 33.3216 84.7776 34.6831 85.1799 36.4933L82.1861 37.0039Z" fill="#FFEBE6"/>
<path d="M97.9822 45.0104H91.3913L90.2542 48.6308H87.3764L92.6445 31.9214H96.7522L102.02 48.6308H99.1426L97.9822 45.0104ZM97.1468 42.388L94.6636 34.6367L92.2268 42.388H97.1468Z" fill="#FFEBE6"/>
<path d="M111.783 42.8057H107.791V48.6308H105.006V31.9214H111.922C112.417 31.9214 112.858 31.9524 113.245 32.0143C114.652 32.2309 115.712 32.8188 116.424 33.778C117.151 34.7218 117.515 35.9131 117.515 37.352C117.515 38.4969 117.275 39.5025 116.795 40.3689C116.316 41.2353 115.612 41.8774 114.683 42.2952L117.77 48.6308H114.614L111.783 42.8057ZM107.791 40.1833H111.806C112.223 40.1833 112.572 40.1446 112.85 40.0672C113.484 39.9125 113.949 39.5799 114.242 39.0693C114.536 38.5433 114.683 37.9708 114.683 37.352C114.683 36.7331 114.536 36.1684 114.242 35.6578C113.949 35.1473 113.484 34.8146 112.85 34.6599C112.572 34.5826 112.223 34.5439 111.806 34.5439H107.791V40.1833Z" fill="#FFEBE6"/>
<path d="M123.774 31.9214V48.6308H120.989V31.9214H123.774Z" fill="#FFEBE6"/>
<path d="M144.747 48.6308H142.124V37.9089L137.019 48.6308H135.905L130.776 37.9322V48.6308H128.154V31.9214H130.66L136.462 43.7572L142.241 31.9214H144.747V48.6308Z" fill="#FFEBE6"/>
<path d="M13.9395 61.3746H8.53214V75.4615H5.72404V61.3746H0.316711V58.7522H13.9395V61.3746Z" fill="#FFEBE6"/>
<path d="M23.9874 75.8097C22.3629 75.8097 20.9472 75.4383 19.7404 74.6957C18.5337 73.9531 17.6054 72.9242 16.9556 71.6091C16.3058 70.294 15.9808 68.7933 15.9808 67.1069C15.9808 65.4205 16.298 63.9197 16.9324 62.6046C17.5822 61.2895 18.5105 60.2607 19.7172 59.518C20.924 58.7754 22.3319 58.4041 23.941 58.4041C25.581 58.4041 26.9966 58.7677 28.1879 59.4948C29.3947 60.2065 30.3153 61.2199 30.9496 62.535C31.5994 63.8346 31.9398 65.3586 31.9708 67.1069C31.9553 68.8397 31.6226 70.3636 30.9728 71.6787C30.323 72.9784 29.3947 73.9917 28.1879 74.7189C26.9966 75.4461 25.5965 75.8097 23.9874 75.8097ZM24.0802 73.164C25.6738 73.164 26.8961 72.6148 27.747 71.5163C28.5979 70.4178 29.0234 68.948 29.0234 67.1069C29.0234 65.2348 28.5825 63.7573 27.7006 62.6743C26.8342 61.5912 25.5655 61.0497 23.8946 61.0497C22.3165 61.0497 21.0942 61.5912 20.2278 62.6743C19.3614 63.7573 18.9282 65.1884 18.9282 66.9676C18.9282 68.9016 19.3614 70.4178 20.2278 71.5163C21.0942 72.6148 22.3784 73.164 24.0802 73.164Z" fill="#FFEBE6"/>
<path d="M43.6476 58.845C45.0555 59.0616 46.1153 59.6496 46.827 60.6088C47.5542 61.5526 47.9177 62.7439 47.9177 64.1827C47.9177 65.6061 47.5542 66.7974 46.827 67.7567C46.0998 68.7159 45.04 69.3116 43.6476 69.5437C43.2608 69.6055 42.8198 69.6365 42.3247 69.6365H38.1938V75.4615H35.4089V58.7522H42.3247C42.8198 58.7522 43.2608 58.7831 43.6476 58.845ZM43.253 66.898C43.8874 66.7433 44.3515 66.4106 44.6455 65.9001C44.9394 65.3741 45.0864 64.8016 45.0864 64.1827C45.0864 63.5639 44.9394 62.9992 44.6455 62.4886C44.3515 61.978 43.8874 61.6454 43.253 61.4907C42.9746 61.4133 42.6264 61.3746 42.2087 61.3746H38.1938V67.014H42.2087C42.6264 67.014 42.9746 66.9754 43.253 66.898Z" fill="#FFEBE6"/>
<path d="M51.3704 58.7522V75.4615H61.5353V72.8391H54.1553V58.7522H51.3704Z" fill="#FFEBE6"/>
<path d="M77.8695 69.2652C77.8695 69.8067 77.8076 70.3714 77.6839 70.9593C77.328 72.4755 76.5622 73.6668 75.3863 74.5332C74.2105 75.3842 72.8026 75.8097 71.1626 75.8097C69.4762 75.8097 68.0373 75.3842 66.846 74.5332C65.6702 73.6823 64.9198 72.4987 64.5949 70.9825C64.4711 70.4874 64.4092 69.915 64.4092 69.2652V58.7754L67.2405 58.7522V69.0099C67.2405 69.5669 67.2869 70.0387 67.3798 70.4255C67.5964 71.2455 68.0528 71.9108 68.749 72.4214C69.4607 72.9319 70.2652 73.1872 71.1626 73.1872C72.0599 73.1872 72.8567 72.9087 73.5529 72.3517C74.2646 71.7948 74.721 71.0985 74.9222 70.2631C74.9995 69.9382 75.0382 69.5204 75.0382 69.0099V58.7522H77.8695V69.2652Z" fill="#FFEBE6"/>
<path d="M82.2418 58.7522V75.4615H92.4066V72.8391H85.0267V58.7522H82.2418Z" fill="#FFEBE6"/>
<path d="M108.741 69.2652C108.741 69.8067 108.679 70.3714 108.555 70.9593C108.199 72.4755 107.434 73.6668 106.258 74.5332C105.082 75.3842 103.674 75.8097 102.034 75.8097C100.348 75.8097 98.9087 75.3842 97.7174 74.5332C96.5415 73.6823 95.7912 72.4987 95.4662 70.9825C95.3425 70.4874 95.2806 69.915 95.2806 69.2652V58.7754L98.1119 58.7522V69.0099C98.1119 69.5669 98.1583 70.0387 98.2511 70.4255C98.4677 71.2455 98.9242 71.9108 99.6204 72.4214C100.332 72.9319 101.137 73.1872 102.034 73.1872C102.931 73.1872 103.728 72.9087 104.424 72.3517C105.136 71.7948 105.592 71.0985 105.794 70.2631C105.871 69.9382 105.91 69.5204 105.91 69.0099V58.7522H108.741V69.2652Z" fill="#FFEBE6"/>
<path d="M120.168 57.3598C119.534 57.3598 118.946 57.205 118.404 56.8956C117.863 56.5707 117.43 56.1375 117.105 55.596C116.795 55.0545 116.641 54.4666 116.641 53.8322H118.822C118.822 54.2035 118.954 54.5207 119.217 54.7837C119.48 55.0468 119.797 55.1783 120.168 55.1783C120.54 55.1783 120.849 55.0468 121.097 54.7837C121.36 54.5207 121.491 54.2035 121.491 53.8322H123.673C123.673 54.4666 123.518 55.0545 123.208 55.596C122.899 56.1375 122.473 56.5707 121.932 56.8956C121.39 57.205 120.803 57.3598 120.168 57.3598ZM127.85 67.571C127.85 68.7004 127.68 69.7603 127.339 70.7504C126.999 71.7252 126.512 72.5838 125.877 73.3265C125.166 74.1774 124.307 74.804 123.301 75.2063C122.296 75.6085 121.197 75.8097 120.006 75.8097C118.784 75.8097 117.654 75.5776 116.617 75.1134C115.596 74.6338 114.745 73.9531 114.065 73.0712C112.811 71.4002 112.185 69.4121 112.185 67.1069C112.185 64.6314 112.811 62.6278 114.065 61.0961C114.792 60.1988 115.658 59.5258 116.664 59.0771C117.67 58.6284 118.784 58.4041 120.006 58.4041C122.141 58.4041 123.835 58.9688 125.088 60.0982C126.233 61.042 126.999 62.2952 127.386 63.8578L124.346 64.322C124.098 63.5484 123.734 62.9295 123.255 62.4654C122.466 61.6763 121.445 61.2818 120.191 61.2818C119.433 61.2818 118.722 61.4288 118.056 61.7228C117.407 62.0167 116.881 62.4422 116.478 62.9992C115.751 63.9429 115.372 65.3122 115.341 67.1069C115.357 67.9423 115.449 68.7004 115.62 69.3812C115.79 70.062 116.076 70.6731 116.478 71.2146C116.881 71.7716 117.414 72.197 118.08 72.491C118.745 72.785 119.449 72.9242 120.191 72.9087C121.414 72.9397 122.435 72.5451 123.255 71.7252C123.626 71.3693 123.92 70.9361 124.137 70.4255C124.369 69.915 124.516 69.4044 124.578 68.8938H121.097V66.6891H127.827L127.85 67.571Z" fill="#FFEBE6"/>
<path d="M144.747 69.2652C144.747 69.8067 144.685 70.3714 144.561 70.9593C144.205 72.4755 143.44 73.6668 142.264 74.5332C141.088 75.3842 139.68 75.8097 138.04 75.8097C136.354 75.8097 134.915 75.3842 133.723 74.5332C132.548 73.6823 131.797 72.4987 131.472 70.9825C131.348 70.4874 131.287 69.915 131.287 69.2652V58.7754L134.118 58.7522V69.0099C134.118 69.5669 134.164 70.0387 134.257 70.4255C134.474 71.2455 134.93 71.9108 135.626 72.4214C136.338 72.9319 137.143 73.1872 138.04 73.1872C138.937 73.1872 139.734 72.9087 140.43 72.3517C141.142 71.7948 141.598 71.0985 141.8 70.2631C141.877 69.9382 141.916 69.5204 141.916 69.0099V58.7522H144.747V69.2652Z" fill="#FFEBE6"/>
<path d="M52.9877 5.09066H55.819V12.8419L62.5027 5.09066H65.9374L58.7431 13.2829L66.4248 21.8H62.874L55.819 14.0023V21.8H52.9877V5.09066Z" stroke="#FFEBE6" stroke-width="0.479121" mask="url(#path-2-outside-1)"/>
<path d="M78.3801 18.1796H71.7892L70.652 21.8H67.7743L73.0424 5.09066H77.1501L82.4182 21.8H79.5405L78.3801 18.1796ZM77.5446 15.5572L75.0614 7.80593L72.6246 15.5572H77.5446Z" stroke="#FFEBE6" stroke-width="0.479121" mask="url(#path-2-outside-1)"/>
<path d="M95.9864 16.8568V5.09066H98.8177V21.8H95.9864L88.2351 10.0106V21.8H85.4038V5.09066H88.2351L95.9864 16.8568Z" stroke="#FFEBE6" stroke-width="0.479121" mask="url(#path-2-outside-1)"/>
<path d="M101.452 5.09066H104.33L108.739 19.0847L113.218 5.09066H116.096L110.828 21.8H106.72L101.452 5.09066Z" stroke="#FFEBE6" stroke-width="0.479121" mask="url(#path-2-outside-1)"/>
<path d="M126.547 18.1796H119.956L118.819 21.8H115.942L121.21 5.09066H125.317L130.585 21.8H127.708L126.547 18.1796ZM125.712 15.5572L123.229 7.80593L120.792 15.5572H125.712Z" stroke="#FFEBE6" stroke-width="0.479121" mask="url(#path-2-outside-1)"/>
<path d="M142.536 10.1731C142.444 9.72441 142.266 9.31442 142.003 8.9431C141.74 8.55631 141.415 8.23914 141.028 7.99159C140.378 7.58933 139.62 7.3882 138.754 7.3882C138.026 7.3882 137.377 7.55065 136.804 7.87556C136.495 8.06122 136.247 8.29329 136.062 8.57178C135.876 8.85027 135.783 9.15196 135.783 9.47687C135.783 9.92554 135.915 10.2814 136.178 10.5444C136.502 10.8848 137.175 11.2097 138.197 11.5191L141.121 12.3082C142.838 12.8033 143.983 13.3602 144.555 13.9791C144.973 14.4278 145.259 14.8997 145.414 15.3948C145.584 15.8899 145.669 16.501 145.669 17.2281C145.669 17.8625 145.515 18.4736 145.205 19.0615C144.896 19.634 144.47 20.1523 143.929 20.6164C142.738 21.6376 141.128 22.1481 139.102 22.1481C136.796 22.1481 134.971 21.4132 133.625 19.9434C132.851 19.0615 132.372 18.0327 132.186 16.8568L135.087 16.4159C135.288 17.174 135.628 17.7929 136.108 18.2725C136.495 18.6593 136.959 18.9687 137.5 19.2008C138.042 19.4174 138.607 19.5257 139.195 19.5257C139.705 19.5257 140.2 19.4638 140.68 19.34C141.159 19.2162 141.554 19.0306 141.863 18.783C142.451 18.3344 142.745 17.7929 142.745 17.1585C142.745 16.617 142.56 16.1838 142.188 15.8589C142.003 15.6732 141.778 15.5263 141.515 15.418C141.252 15.3097 140.912 15.1936 140.494 15.0699L137.384 14.1648C136.502 13.9172 135.814 13.6929 135.319 13.4918C134.824 13.2906 134.391 13.0044 134.019 12.6331C133.23 11.8904 132.836 10.8693 132.836 9.5697C132.836 8.81159 133.006 8.11537 133.346 7.48103C133.702 6.83122 134.182 6.29745 134.785 5.87972C135.837 5.12161 137.222 4.74255 138.939 4.74255C140.332 4.7735 141.508 5.05199 142.467 5.57802C144.107 6.49085 145.128 7.85235 145.53 9.66253L142.536 10.1731Z" stroke="#FFEBE6" stroke-width="0.479121" mask="url(#path-2-outside-1)"/>
<path d="M54.4709 34.5439H49.0636V48.6308H46.2555V34.5439H40.8482V31.9214H54.4709V34.5439Z" stroke="#FFEBE6" stroke-width="0.479121" mask="url(#path-2-outside-1)"/>
<path d="M66.1971 45.0104H59.6062L58.469 48.6308H55.5913L60.8594 31.9214H64.9671L70.2351 48.6308H67.3574L66.1971 45.0104ZM65.3616 42.388L62.8784 34.6367L60.4416 42.388H65.3616Z" stroke="#FFEBE6" stroke-width="0.479121" mask="url(#path-2-outside-1)"/>
<path d="M82.1861 37.0039C82.0933 36.5552 81.9153 36.1452 81.6523 35.7739C81.3893 35.3871 81.0644 35.0699 80.6776 34.8224C80.0278 34.4201 79.2697 34.219 78.4033 34.219C77.6761 34.219 77.0263 34.3814 76.4539 34.7063C76.1444 34.892 75.8969 35.1241 75.7112 35.4025C75.5256 35.681 75.4327 35.9827 75.4327 36.3076C75.4327 36.7563 75.5642 37.1122 75.8273 37.3752C76.1522 37.7156 76.8252 38.0405 77.8463 38.3499L80.7704 39.1389C82.4878 39.634 83.6327 40.191 84.2051 40.8099C84.6229 41.2586 84.9091 41.7304 85.0638 42.2255C85.234 42.7206 85.3191 43.3317 85.3191 44.0589C85.3191 44.6932 85.1644 45.3044 84.8549 45.8923C84.5455 46.4648 84.12 46.983 83.5785 47.4472C82.3872 48.4683 80.7782 48.9789 78.7514 48.9789C76.4461 48.9789 74.6205 48.244 73.2744 46.7742C72.5009 45.8923 72.0212 44.8634 71.8356 43.6876L74.7365 43.2467C74.9376 44.0048 75.278 44.6236 75.7576 45.1032C76.1444 45.49 76.6086 45.7995 77.1501 46.0315C77.6916 46.2481 78.2563 46.3564 78.8442 46.3564C79.3548 46.3564 79.8499 46.2946 80.3295 46.1708C80.8091 46.047 81.2036 45.8614 81.5131 45.6138C82.101 45.1651 82.395 44.6236 82.395 43.9893C82.395 43.4478 82.2093 43.0146 81.838 42.6897C81.6523 42.504 81.428 42.357 81.165 42.2487C80.902 42.1404 80.5616 42.0244 80.1438 41.9006L77.0341 40.9955C76.1522 40.748 75.4637 40.5236 74.9686 40.3225C74.4735 40.1214 74.0403 39.8352 73.669 39.4638C72.8799 38.7212 72.4854 37.7001 72.4854 36.4005C72.4854 35.6424 72.6556 34.9461 72.996 34.3118C73.3518 33.662 73.8314 33.1282 74.4348 32.7105C75.4869 31.9524 76.8716 31.5733 78.5889 31.5733C79.9814 31.6043 81.1572 31.8828 82.1165 32.4088C83.7565 33.3216 84.7776 34.6831 85.1799 36.4933L82.1861 37.0039Z" stroke="#FFEBE6" stroke-width="0.479121" mask="url(#path-2-outside-1)"/>
<path d="M97.9822 45.0104H91.3913L90.2542 48.6308H87.3764L92.6445 31.9214H96.7522L102.02 48.6308H99.1426L97.9822 45.0104ZM97.1468 42.388L94.6636 34.6367L92.2268 42.388H97.1468Z" stroke="#FFEBE6" stroke-width="0.479121" mask="url(#path-2-outside-1)"/>
<path d="M111.783 42.8057H107.791V48.6308H105.006V31.9214H111.922C112.417 31.9214 112.858 31.9524 113.245 32.0143C114.652 32.2309 115.712 32.8188 116.424 33.778C117.151 34.7218 117.515 35.9131 117.515 37.352C117.515 38.4969 117.275 39.5025 116.795 40.3689C116.316 41.2353 115.612 41.8774 114.683 42.2952L117.77 48.6308H114.614L111.783 42.8057ZM107.791 40.1833H111.806C112.223 40.1833 112.572 40.1446 112.85 40.0672C113.484 39.9125 113.949 39.5799 114.242 39.0693C114.536 38.5433 114.683 37.9708 114.683 37.352C114.683 36.7331 114.536 36.1684 114.242 35.6578C113.949 35.1473 113.484 34.8146 112.85 34.6599C112.572 34.5826 112.223 34.5439 111.806 34.5439H107.791V40.1833Z" stroke="#FFEBE6" stroke-width="0.479121" mask="url(#path-2-outside-1)"/>
<path d="M123.774 31.9214V48.6308H120.989V31.9214H123.774Z" stroke="#FFEBE6" stroke-width="0.479121" mask="url(#path-2-outside-1)"/>
<path d="M144.747 48.6308H142.124V37.9089L137.019 48.6308H135.905L130.776 37.9322V48.6308H128.154V31.9214H130.66L136.462 43.7572L142.241 31.9214H144.747V48.6308Z" stroke="#FFEBE6" stroke-width="0.479121" mask="url(#path-2-outside-1)"/>
<path d="M13.9395 61.3746H8.53214V75.4615H5.72404V61.3746H0.316711V58.7522H13.9395V61.3746Z" stroke="#FFEBE6" stroke-width="0.479121" mask="url(#path-2-outside-1)"/>
<path d="M23.9874 75.8097C22.3629 75.8097 20.9472 75.4383 19.7404 74.6957C18.5337 73.9531 17.6054 72.9242 16.9556 71.6091C16.3058 70.294 15.9808 68.7933 15.9808 67.1069C15.9808 65.4205 16.298 63.9197 16.9324 62.6046C17.5822 61.2895 18.5105 60.2607 19.7172 59.518C20.924 58.7754 22.3319 58.4041 23.941 58.4041C25.581 58.4041 26.9966 58.7677 28.1879 59.4948C29.3947 60.2065 30.3153 61.2199 30.9496 62.535C31.5994 63.8346 31.9398 65.3586 31.9708 67.1069C31.9553 68.8397 31.6226 70.3636 30.9728 71.6787C30.323 72.9784 29.3947 73.9917 28.1879 74.7189C26.9966 75.4461 25.5965 75.8097 23.9874 75.8097ZM24.0802 73.164C25.6738 73.164 26.8961 72.6148 27.747 71.5163C28.5979 70.4178 29.0234 68.948 29.0234 67.1069C29.0234 65.2348 28.5825 63.7573 27.7006 62.6743C26.8342 61.5912 25.5655 61.0497 23.8946 61.0497C22.3165 61.0497 21.0942 61.5912 20.2278 62.6743C19.3614 63.7573 18.9282 65.1884 18.9282 66.9676C18.9282 68.9016 19.3614 70.4178 20.2278 71.5163C21.0942 72.6148 22.3784 73.164 24.0802 73.164Z" stroke="#FFEBE6" stroke-width="0.479121" mask="url(#path-2-outside-1)"/>
<path d="M43.6476 58.845C45.0555 59.0616 46.1153 59.6496 46.827 60.6088C47.5542 61.5526 47.9177 62.7439 47.9177 64.1827C47.9177 65.6061 47.5542 66.7974 46.827 67.7567C46.0998 68.7159 45.04 69.3116 43.6476 69.5437C43.2608 69.6055 42.8198 69.6365 42.3247 69.6365H38.1938V75.4615H35.4089V58.7522H42.3247C42.8198 58.7522 43.2608 58.7831 43.6476 58.845ZM43.253 66.898C43.8874 66.7433 44.3515 66.4106 44.6455 65.9001C44.9394 65.3741 45.0864 64.8016 45.0864 64.1827C45.0864 63.5639 44.9394 62.9992 44.6455 62.4886C44.3515 61.978 43.8874 61.6454 43.253 61.4907C42.9746 61.4133 42.6264 61.3746 42.2087 61.3746H38.1938V67.014H42.2087C42.6264 67.014 42.9746 66.9754 43.253 66.898Z" stroke="#FFEBE6" stroke-width="0.479121" mask="url(#path-2-outside-1)"/>
<path d="M51.3704 58.7522V75.4615H61.5353V72.8391H54.1553V58.7522H51.3704Z" stroke="#FFEBE6" stroke-width="0.479121" mask="url(#path-2-outside-1)"/>
<path d="M77.8695 69.2652C77.8695 69.8067 77.8076 70.3714 77.6839 70.9593C77.328 72.4755 76.5622 73.6668 75.3863 74.5332C74.2105 75.3842 72.8026 75.8097 71.1626 75.8097C69.4762 75.8097 68.0373 75.3842 66.846 74.5332C65.6702 73.6823 64.9198 72.4987 64.5949 70.9825C64.4711 70.4874 64.4092 69.915 64.4092 69.2652V58.7754L67.2405 58.7522V69.0099C67.2405 69.5669 67.2869 70.0387 67.3798 70.4255C67.5964 71.2455 68.0528 71.9108 68.749 72.4214C69.4607 72.9319 70.2652 73.1872 71.1626 73.1872C72.0599 73.1872 72.8567 72.9087 73.5529 72.3517C74.2646 71.7948 74.721 71.0985 74.9222 70.2631C74.9995 69.9382 75.0382 69.5204 75.0382 69.0099V58.7522H77.8695V69.2652Z" stroke="#FFEBE6" stroke-width="0.479121" mask="url(#path-2-outside-1)"/>
<path d="M82.2418 58.7522V75.4615H92.4066V72.8391H85.0267V58.7522H82.2418Z" stroke="#FFEBE6" stroke-width="0.479121" mask="url(#path-2-outside-1)"/>
<path d="M108.741 69.2652C108.741 69.8067 108.679 70.3714 108.555 70.9593C108.199 72.4755 107.434 73.6668 106.258 74.5332C105.082 75.3842 103.674 75.8097 102.034 75.8097C100.348 75.8097 98.9087 75.3842 97.7174 74.5332C96.5415 73.6823 95.7912 72.4987 95.4662 70.9825C95.3425 70.4874 95.2806 69.915 95.2806 69.2652V58.7754L98.1119 58.7522V69.0099C98.1119 69.5669 98.1583 70.0387 98.2511 70.4255C98.4677 71.2455 98.9242 71.9108 99.6204 72.4214C100.332 72.9319 101.137 73.1872 102.034 73.1872C102.931 73.1872 103.728 72.9087 104.424 72.3517C105.136 71.7948 105.592 71.0985 105.794 70.2631C105.871 69.9382 105.91 69.5204 105.91 69.0099V58.7522H108.741V69.2652Z" stroke="#FFEBE6" stroke-width="0.479121" mask="url(#path-2-outside-1)"/>
<path d="M120.168 57.3598C119.534 57.3598 118.946 57.205 118.404 56.8956C117.863 56.5707 117.43 56.1375 117.105 55.596C116.795 55.0545 116.641 54.4666 116.641 53.8322H118.822C118.822 54.2035 118.954 54.5207 119.217 54.7837C119.48 55.0468 119.797 55.1783 120.168 55.1783C120.54 55.1783 120.849 55.0468 121.097 54.7837C121.36 54.5207 121.491 54.2035 121.491 53.8322H123.673C123.673 54.4666 123.518 55.0545 123.208 55.596C122.899 56.1375 122.473 56.5707 121.932 56.8956C121.39 57.205 120.803 57.3598 120.168 57.3598ZM127.85 67.571C127.85 68.7004 127.68 69.7603 127.339 70.7504C126.999 71.7252 126.512 72.5838 125.877 73.3265C125.166 74.1774 124.307 74.804 123.301 75.2063C122.296 75.6085 121.197 75.8097 120.006 75.8097C118.784 75.8097 117.654 75.5776 116.617 75.1134C115.596 74.6338 114.745 73.9531 114.065 73.0712C112.811 71.4002 112.185 69.4121 112.185 67.1069C112.185 64.6314 112.811 62.6278 114.065 61.0961C114.792 60.1988 115.658 59.5258 116.664 59.0771C117.67 58.6284 118.784 58.4041 120.006 58.4041C122.141 58.4041 123.835 58.9688 125.088 60.0982C126.233 61.042 126.999 62.2952 127.386 63.8578L124.346 64.322C124.098 63.5484 123.734 62.9295 123.255 62.4654C122.466 61.6763 121.445 61.2818 120.191 61.2818C119.433 61.2818 118.722 61.4288 118.056 61.7228C117.407 62.0167 116.881 62.4422 116.478 62.9992C115.751 63.9429 115.372 65.3122 115.341 67.1069C115.357 67.9423 115.449 68.7004 115.62 69.3812C115.79 70.062 116.076 70.6731 116.478 71.2146C116.881 71.7716 117.414 72.197 118.08 72.491C118.745 72.785 119.449 72.9242 120.191 72.9087C121.414 72.9397 122.435 72.5451 123.255 71.7252C123.626 71.3693 123.92 70.9361 124.137 70.4255C124.369 69.915 124.516 69.4044 124.578 68.8938H121.097V66.6891H127.827L127.85 67.571Z" stroke="#FFEBE6" stroke-width="0.479121" mask="url(#path-2-outside-1)"/>
<path d="M144.747 69.2652C144.747 69.8067 144.685 70.3714 144.561 70.9593C144.205 72.4755 143.44 73.6668 142.264 74.5332C141.088 75.3842 139.68 75.8097 138.04 75.8097C136.354 75.8097 134.915 75.3842 133.723 74.5332C132.548 73.6823 131.797 72.4987 131.472 70.9825C131.348 70.4874 131.287 69.915 131.287 69.2652V58.7754L134.118 58.7522V69.0099C134.118 69.5669 134.164 70.0387 134.257 70.4255C134.474 71.2455 134.93 71.9108 135.626 72.4214C136.338 72.9319 137.143 73.1872 138.04 73.1872C138.937 73.1872 139.734 72.9087 140.43 72.3517C141.142 71.7948 141.598 71.0985 141.8 70.2631C141.877 69.9382 141.916 69.5204 141.916 69.0099V58.7522H144.747V69.2652Z" stroke="#FFEBE6" stroke-width="0.479121" mask="url(#path-2-outside-1)"/>
</svg>
