<svg width="30" height="30" viewBox="0 0 30 30" fill="none" xmlns="http://www.w3.org/2000/svg">
<path fill-rule="evenodd" clip-rule="evenodd" d="M15 0C6.71573 0 0 6.71573 0 15C0 23.2843 6.71573 30 15 30C23.2843 30 30 23.2843 30 15C30 6.71573 23.2843 0 15 0ZM23.3702 14.3571L17.5848 8.5717C17.2297 8.21668 16.6541 8.21668 16.2991 8.5717C15.9441 8.92672 15.9441 9.50232 16.2991 9.85735L20.5326 14.0908H6.81827V15.909H20.5326L16.2991 20.1425C15.9441 20.4976 15.9441 21.0732 16.2991 21.4282C16.6541 21.7832 17.2297 21.7832 17.5848 21.4282L23.3702 15.6428C23.7252 15.2877 23.7252 14.7121 23.3702 14.3571Z" fill="#FFEBE6"/>
</svg>
