<svg width="42" height="42" viewBox="0 0 42 42" fill="none" xmlns="http://www.w3.org/2000/svg">
<path fill-rule="evenodd" clip-rule="evenodd" d="M21 0C9.40202 0 0 9.40202 0 21C0 32.598 9.40202 42 21 42C32.598 42 42 32.598 42 21C42 9.40202 32.598 0 21 0ZM32.7182 20.1L24.6186 12.0005C24.1215 11.5034 23.3157 11.5034 22.8187 12.0005C22.3216 12.4975 22.3216 13.3033 22.8187 13.8004L28.7456 19.7273H9.54547V22.2727H28.7456L22.8187 28.1996C22.3216 28.6967 22.3216 29.5025 22.8187 29.9995C23.3157 30.4966 24.1215 30.4966 24.6186 29.9995L32.7182 21.9C33.2152 21.4029 33.2152 20.5971 32.7182 20.1Z" fill="#FFEBE6"/>
</svg>
